<?xml version="1.0" encoding="UTF-8" standalone="no"?>
<!DOCTYPE svg PUBLIC "-//W3C//DTD SVG 1.1//EN" "http://www.w3.org/Graphics/SVG/1.1/DTD/svg11.dtd">
<svg xmlns:dc="http://purl.org/dc/elements/1.1/" xmlns:xl="http://www.w3.org/1999/xlink" version="1.1" xmlns="http://www.w3.org/2000/svg" viewBox="-4732241e-10 72 576.001 368" width="576.001" height="368">
  <defs/>
  <metadata> Produced by OmniGraffle 7.8.1 
    <dc:date>2018-08-09 16:26:21 +0000</dc:date>
  </metadata>
  <g id="Canvas_1" fill-opacity="1" stroke-dasharray="none" stroke="none" stroke-opacity="1" fill="none">
    <title>Canvas 1</title>
    <g id="Canvas_1: Layer 1">
      <title>Layer 1</title>
      <g id="Graphic_2">
        <path d="M 569.354 231.631 C 512.97 135.949 407.81 72 288 72 C 168.14 72 63.004 135.994 6.646 231.631 C -2.2159643 246.66884 -2.2159643 265.33216 6.646 280.37 C 63.031 376.051 168.19 440 288 440 C 407.86 440 512.996 376.006 569.354 280.369 C 578.216 265.33153 578.216 246.66847 569.354 231.631 Z M 288 392 C 185.444 392 95.909 337.299 48 256 C 92.157 181.067 171.677 128.73 264.162 120.993 C 273.958 131.078 280 144.83 280 160 C 280 190.928 254.928 216 224 216 C 193.072 216 168 190.928 168 160 L 168.001 159.958 C 157.794 179.043 152 200.844 152 224 C 152 299.111 212.889 360 288 360 C 363.111 360 424 299.111 424 224 C 424 192.969 413.6 164.371 396.105 141.485 C 451.704 164.638 498.009 205.106 528 256 C 480.092 337.299 390.556 392 288 392 Z" fill="black"/>
      </g>
    </g>
  </g>
</svg>
